<svg xmlns="http://www.w3.org/2000/svg" width="574.8192749023438" height="530.82177734375" viewBox="-233.6770477294922 -268.3993835449219 574.8192749023438 530.82177734375"><title>Neo4j Graph Visualization</title><desc>Created using Neo4j (http://www.neo4j.com/)</desc><g class="layer relationships"><g class="relationship" transform="translate(-46.06291728846128 60.57896235572626) rotate(459.7041457339767)"><path class="outline" fill="#A5ABB6" stroke="none" d="M 25 0.5 L 73.17626463762406 0.5 L 73.17626463762406 -0.5 L 25 -0.5 Z M 95.17626463762406 0.5 L 143.35252927524812 0.5 L 143.35252927524812 3.5 L 150.35252927524812 0 L 143.35252927524812 -3.5 L 143.35252927524812 -0.5 L 95.17626463762406 -0.5 Z"/><text text-anchor="middle" pointer-events="none" font-size="8px" fill="#000000" x="84.17626463762406" y="3" transform="rotate(180 84.17626463762406 0)" font-family="sans-serif">义父</text></g><g class="relationship" transform="translate(-46.06291728846128 60.57896235572626) rotate(468.9824305470113)"><path class="outline" fill="#A5ABB6" stroke="none" d="M 25 0.5 L 43.117906921399296 0.5 L 43.117906921399296 -0.5 L 25 -0.5 Z M 65.1179069213993 0.5 L 83.23581384279859 0.5 L 83.23581384279859 3.5 L 90.23581384279859 0 L 83.23581384279859 -3.5 L 83.23581384279859 -0.5 L 65.1179069213993 -0.5 Z"/><text text-anchor="middle" pointer-events="none" font-size="8px" fill="#000000" x="54.117906921399296" y="3" transform="rotate(180 54.117906921399296 0)" font-family="sans-serif">主公</text></g><g class="relationship" transform="translate(-46.06291728846128 60.57896235572626) rotate(439.85827042826315)"><path class="outline" fill="#A5ABB6" stroke="none" d="M 25 0.5 L 64.38121740468928 0.5 L 64.38121740468928 -0.5 L 25 -0.5 Z M 86.38121740468928 0.5 L 125.76243480937856 0.5 L 125.76243480937856 3.5 L 132.76243480937856 0 L 125.76243480937856 -3.5 L 125.76243480937856 -0.5 L 86.38121740468928 -0.5 Z"/><text text-anchor="middle" pointer-events="none" font-size="8px" fill="#000000" x="75.38121740468928" y="3" font-family="sans-serif">主公</text></g><g class="relationship" transform="translate(-46.06291728846128 60.57896235572626) rotate(422.0485152719641)"><path class="outline" fill="#A5ABB6" stroke="none" d="M 25 0.5 L 78.42607192547614 0.5 L 78.42607192547614 -0.5 L 25 -0.5 Z M 100.42607192547614 0.5 L 153.85214385095227 0.5 L 153.85214385095227 3.5 L 160.85214385095227 0 L 153.85214385095227 -3.5 L 153.85214385095227 -0.5 L 100.42607192547614 -0.5 Z"/><text text-anchor="middle" pointer-events="none" font-size="8px" fill="#000000" x="89.42607192547614" y="3" font-family="sans-serif">主公</text></g><g class="relationship" transform="translate(-46.06291728846128 60.57896235572626) rotate(383.6780959465856)"><path class="outline" fill="#A5ABB6" stroke="none" d="M 25 0.5 L 74.69717376402535 0.5 L 74.69717376402535 -0.5 L 25 -0.5 Z M 96.69717376402535 0.5 L 146.3943475280507 0.5 L 146.3943475280507 3.5 L 153.3943475280507 0 L 146.3943475280507 -3.5 L 146.3943475280507 -0.5 L 96.69717376402535 -0.5 Z"/><text text-anchor="middle" pointer-events="none" font-size="8px" fill="#000000" x="85.69717376402535" y="3" font-family="sans-serif">主公</text></g><g class="relationship" transform="translate(-46.06291728846128 60.57896235572626) rotate(419.70306110444824)"><path class="outline" fill="#A5ABB6" stroke="none" d="M 25 0.5 L 46.80416585556228 0.5 L 46.80416585556228 -0.5 L 25 -0.5 Z M 68.80416585556227 0.5 L 90.60833171112456 0.5 L 90.60833171112456 3.5 L 97.60833171112456 0 L 90.60833171112456 -3.5 L 90.60833171112456 -0.5 L 68.80416585556227 -0.5 Z"/><text text-anchor="middle" pointer-events="none" font-size="8px" fill="#000000" x="57.80416585556228" y="3" font-family="sans-serif">主公</text></g><g class="relationship" transform="translate(-46.06291728846128 60.57896235572626) rotate(379.33903840717574)"><path class="outline" fill="#A5ABB6" stroke="none" d="M 24.018736134675446,-6.953439040707552 L 24.277555179777966,-5.987513214418485 A 130.50360378839466 130.50360378839466 0 0 1 45.24378960542031,-9.804033044363138 L 45.145626923950765,-10.799203425738483 A 131.50360378839466 131.50360378839466 0 0 0 24.018736134675446,-6.953439040707552 Z M 67.20138048101461,-11.115810392991648 L 67.13182339723303,-10.1182324200513 A 130.50360378839466 130.50360378839466 0 0 1 88.19896747259521,-6.905095306375026 L 87.50600743234808,-3.98622456880875 L 95.12515920029104,-5.774667002059433 L 89.12291419292471,-10.796922956463394 L 88.42995415267758,-7.878052218897118 A 131.50360378839466 131.50360378839466 0 0 0 67.20138048101461,-11.115810392991648"/><text text-anchor="middle" pointer-events="none" font-size="8px" fill="#000000" x="56.17403033232446" y="-7.9208203572441676" font-family="sans-serif">主公</text></g><g class="relationship" transform="translate(-46.06291728846128 60.57896235572626) rotate(365.1732824985379)"><path class="outline" fill="#A5ABB6" stroke="none" d="M 24.018736134675446,-6.953439040707552 L 24.277555179777966,-5.987513214418485 A 301.65141969417743 301.65141969417743 0 0 1 88.81245242991793,-15.96208227549323 L 88.76757203398725,-16.96107464286206 A 302.65141969417743 302.65141969417743 0 0 0 24.018736134675446,-6.953439040707552 Z M 110.79831623197315,-17.148117701995773 L 110.77040415853347,-16.148507319818634 A 301.65141969417743 301.65141969417743 0 0 1 175.46535633563727,-7.271111652027152 L 174.73821238089388,-4.360568460614221 L 182.37781444139134,-6.059532956194765 L 176.43488160862844,-11.151835907244392 L 175.70773765388506,-8.241292715831461 A 302.65141969417743 302.65141969417743 0 0 0 110.79831623197315,-17.148117701995773"/><text text-anchor="middle" pointer-events="none" font-size="8px" fill="#000000" x="99.78548648514558" y="-13.755146887990634" font-family="sans-serif">主公</text></g><g class="relationship" transform="translate(159.72771787295812 79.21062470999813) rotate(370.2301232062794)"><path class="outline" fill="#A5ABB6" stroke="none" d="M 25 0.5 L 62.93836897183478 0.5 L 62.93836897183478 -0.5 L 25 -0.5 Z M 84.93836897183478 0.5 L 122.87673794366955 0.5 L 122.87673794366955 3.5 L 129.87673794366955 0 L 122.87673794366955 -3.5 L 122.87673794366955 -0.5 L 84.93836897183478 -0.5 Z"/><text text-anchor="middle" pointer-events="none" font-size="8px" fill="#000000" x="73.93836897183478" y="3" font-family="sans-serif">父亲</text></g><g class="relationship" transform="translate(159.72771787295812 79.21062470999813) rotate(527.3304756730577)"><path class="outline" fill="#A5ABB6" stroke="none" d="M 25 0.5 L 33.20218592611392 0.5 L 33.20218592611392 -0.5 L 25 -0.5 Z M 55.20218592611392 0.5 L 63.40437185222784 0.5 L 63.40437185222784 3.5 L 70.40437185222784 0 L 63.40437185222784 -3.5 L 63.40437185222784 -0.5 L 55.20218592611392 -0.5 Z"/><text text-anchor="middle" pointer-events="none" font-size="8px" fill="#000000" x="44.20218592611392" y="3" transform="rotate(180 44.20218592611392 0)" font-family="sans-serif">堂弟</text></g><g class="relationship" transform="translate(-46.06291728846128 60.57896235572626) rotate(403.2192778690079)"><path class="outline" fill="#A5ABB6" stroke="none" d="M 25 0.5 L 72.60712158985781 0.5 L 72.60712158985781 -0.5 L 25 -0.5 Z M 94.60712158985781 0.5 L 142.21424317971562 0.5 L 142.21424317971562 3.5 L 149.21424317971562 0 L 142.21424317971562 -3.5 L 142.21424317971562 -0.5 L 94.60712158985781 -0.5 Z"/><text text-anchor="middle" pointer-events="none" font-size="8px" fill="#000000" x="83.60712158985781" y="3" font-family="sans-serif">主公</text></g><g class="relationship" transform="translate(-46.06291728846128 60.57896235572626) rotate(353.2344280865434)"><path class="outline" fill="#A5ABB6" stroke="none" d="M 25 0.5 L 62.108936226559166 0.5 L 62.108936226559166 -0.5 L 25 -0.5 Z M 84.10893622655917 0.5 L 121.21787245311833 0.5 L 121.21787245311833 3.5 L 128.21787245311833 0 L 121.21787245311833 -3.5 L 121.21787245311833 -0.5 L 84.10893622655917 -0.5 Z"/><text text-anchor="middle" pointer-events="none" font-size="8px" fill="#000000" x="73.10893622655917" y="3" font-family="sans-serif">主公</text></g><g class="relationship" transform="translate(-46.06291728846128 60.57896235572626) rotate(332.5086821849678)"><path class="outline" fill="#A5ABB6" stroke="none" d="M 25 0.5 L 75.72930643915001 0.5 L 75.72930643915001 -0.5 L 25 -0.5 Z M 97.72930643915001 0.5 L 148.45861287830002 0.5 L 148.45861287830002 3.5 L 155.45861287830002 0 L 148.45861287830002 -3.5 L 148.45861287830002 -0.5 L 97.72930643915001 -0.5 Z"/><text text-anchor="middle" pointer-events="none" font-size="8px" fill="#000000" x="86.72930643915001" y="3" font-family="sans-serif">主公</text></g><g class="relationship" transform="translate(-46.06291728846128 60.57896235572626) rotate(309.07734074710095)"><path class="outline" fill="#A5ABB6" stroke="none" d="M 25 0.5 L 68.24404041179412 0.5 L 68.24404041179412 -0.5 L 25 -0.5 Z M 90.24404041179412 0.5 L 133.48808082358823 0.5 L 133.48808082358823 3.5 L 140.48808082358823 0 L 133.48808082358823 -3.5 L 133.48808082358823 -0.5 L 90.24404041179412 -0.5 Z"/><text text-anchor="middle" pointer-events="none" font-size="8px" fill="#000000" x="79.24404041179412" y="3" font-family="sans-serif">主公</text></g><g class="relationship" transform="translate(-46.06291728846128 60.57896235572626) rotate(328.5908956872024)"><path class="outline" fill="#A5ABB6" stroke="none" d="M 25 0.5 L 46.16604964512798 0.5 L 46.16604964512798 -0.5 L 25 -0.5 Z M 68.16604964512797 0.5 L 89.33209929025595 0.5 L 89.33209929025595 3.5 L 96.33209929025595 0 L 89.33209929025595 -3.5 L 89.33209929025595 -0.5 L 68.16604964512797 -0.5 Z"/><text text-anchor="middle" pointer-events="none" font-size="8px" fill="#000000" x="57.16604964512798" y="3" font-family="sans-serif">主公</text></g><g class="relationship" transform="translate(-46.06291728846128 60.57896235572626) rotate(281.9273052944138)"><path class="outline" fill="#A5ABB6" stroke="none" d="M 25 0.5 L 74.67296939783931 0.5 L 74.67296939783931 -0.5 L 25 -0.5 Z M 96.67296939783931 0.5 L 146.34593879567862 0.5 L 146.34593879567862 3.5 L 153.34593879567862 0 L 146.34593879567862 -3.5 L 146.34593879567862 -0.5 L 96.67296939783931 -0.5 Z"/><text text-anchor="middle" pointer-events="none" font-size="8px" fill="#000000" x="85.67296939783931" y="3" font-family="sans-serif">主公</text></g><g class="relationship" transform="translate(-9.204075202661498 -113.91659530980868) rotate(300.9584255129049)"><path class="outline" fill="#A5ABB6" stroke="none" d="M 25 0.5 L 58.66432329655474 0.5 L 58.66432329655474 -0.5 L 25 -0.5 Z M 80.66432329655474 0.5 L 114.32864659310948 0.5 L 114.32864659310948 3.5 L 121.32864659310948 0 L 114.32864659310948 -3.5 L 114.32864659310948 -0.5 L 80.66432329655474 -0.5 Z"/><text text-anchor="middle" pointer-events="none" font-size="8px" fill="#000000" x="69.66432329655474" y="3" font-family="sans-serif">弟弟</text></g><g class="relationship" transform="translate(-46.06291728846128 60.57896235572626) rotate(288.9206934039215)"><path class="outline" fill="#A5ABB6" stroke="none" d="M 25 0.5 L 45.10181764179165 0.5 L 45.10181764179165 -0.5 L 25 -0.5 Z M 67.10181764179165 0.5 L 87.2036352835833 0.5 L 87.2036352835833 3.5 L 94.2036352835833 0 L 87.2036352835833 -3.5 L 87.2036352835833 -0.5 L 67.10181764179165 -0.5 Z"/><text text-anchor="middle" pointer-events="none" font-size="8px" fill="#000000" x="56.10181764179165" y="3" font-family="sans-serif">主公</text></g><g class="relationship" transform="translate(-46.06291728846128 60.57896235572626) rotate(258.8441111932572)"><path class="outline" fill="#A5ABB6" stroke="none" d="M 25 0.5 L 68.84756917930444 0.5 L 68.84756917930444 -0.5 L 25 -0.5 Z M 90.84756917930444 0.5 L 134.6951383586089 0.5 L 134.6951383586089 3.5 L 141.6951383586089 0 L 134.6951383586089 -3.5 L 134.6951383586089 -0.5 L 90.84756917930444 -0.5 Z"/><text text-anchor="middle" pointer-events="none" font-size="8px" fill="#000000" x="79.84756917930444" y="3" transform="rotate(180 79.84756917930444 0)" font-family="sans-serif">主公</text></g><g class="relationship" transform="translate(-46.06291728846128 60.57896235572626) rotate(243.85471553585535)"><path class="outline" fill="#A5ABB6" stroke="none" d="M 25 0.5 L 45.2175669410838 0.5 L 45.2175669410838 -0.5 L 25 -0.5 Z M 67.2175669410838 0.5 L 87.4351338821676 0.5 L 87.4351338821676 3.5 L 94.4351338821676 0 L 87.4351338821676 -3.5 L 87.4351338821676 -0.5 L 67.2175669410838 -0.5 Z"/><text text-anchor="middle" pointer-events="none" font-size="8px" fill="#000000" x="56.2175669410838" y="3" transform="rotate(180 56.2175669410838 0)" font-family="sans-serif">主公</text></g><g class="relationship" transform="translate(-98.69186572832697 -46.63551890294167) rotate(323.06245481316716)"><path class="outline" fill="#A5ABB6" stroke="none" d="M 25 0.5 L 41.4794781496578 0.5 L 41.4794781496578 -0.5 L 25 -0.5 Z M 63.4794781496578 0.5 L 79.9589562993156 0.5 L 79.9589562993156 3.5 L 86.9589562993156 0 L 79.9589562993156 -3.5 L 79.9589562993156 -0.5 L 63.4794781496578 -0.5 Z"/><text text-anchor="middle" pointer-events="none" font-size="8px" fill="#000000" x="52.4794781496578" y="3" font-family="sans-serif">朋友</text></g><g class="relationship" transform="translate(-46.06291728846128 60.57896235572626) rotate(222.34491420825253)"><path class="outline" fill="#A5ABB6" stroke="none" d="M 25 0.5 L 62.19312865862668 0.5 L 62.19312865862668 -0.5 L 25 -0.5 Z M 84.19312865862668 0.5 L 121.38625731725335 0.5 L 121.38625731725335 3.5 L 128.38625731725335 0 L 121.38625731725335 -3.5 L 121.38625731725335 -0.5 L 84.19312865862668 -0.5 Z"/><text text-anchor="middle" pointer-events="none" font-size="8px" fill="#000000" x="73.19312865862668" y="3" transform="rotate(180 73.19312865862668 0)" font-family="sans-serif">主公</text></g><g class="relationship" transform="translate(-46.06291728846128 60.57896235572626) rotate(199.4029763213901)"><path class="outline" fill="#A5ABB6" stroke="none" d="M 25 0.5 L 53.738518140433754 0.5 L 53.738518140433754 -0.5 L 25 -0.5 Z M 75.73851814043375 0.5 L 104.47703628086751 0.5 L 104.47703628086751 3.5 L 111.47703628086751 0 L 104.47703628086751 -3.5 L 104.47703628086751 -0.5 L 75.73851814043375 -0.5 Z"/><text text-anchor="middle" pointer-events="none" font-size="8px" fill="#000000" x="64.73851814043375" y="3" transform="rotate(180 64.73851814043375 0)" font-family="sans-serif">主公</text></g><g class="relationship" transform="translate(-46.06291728846128 60.57896235572626) rotate(519.3798112702555)"><path class="outline" fill="#A5ABB6" stroke="none" d="M 25 0.5 L 44.0660921871324 0.5 L 44.0660921871324 -0.5 L 25 -0.5 Z M 66.0660921871324 0.5 L 85.1321843742648 0.5 L 85.1321843742648 3.5 L 92.1321843742648 0 L 85.1321843742648 -3.5 L 85.1321843742648 -0.5 L 66.0660921871324 -0.5 Z"/><text text-anchor="middle" pointer-events="none" font-size="8px" fill="#000000" x="55.0660921871324" y="3" transform="rotate(180 55.0660921871324 0)" font-family="sans-serif">主公</text></g><g class="relationship" transform="translate(-155.69108716218608 101.82957430784764) rotate(403.18747241106166)"><path class="outline" fill="#A5ABB6" stroke="none" d="M 25 0.5 L 34.973777575220815 0.5 L 34.973777575220815 -0.5 L 25 -0.5 Z M 56.973777575220815 0.5 L 66.94755515044163 0.5 L 66.94755515044163 3.5 L 73.94755515044163 0 L 66.94755515044163 -3.5 L 66.94755515044163 -0.5 L 56.973777575220815 -0.5 Z"/><text text-anchor="middle" pointer-events="none" font-size="8px" fill="#000000" x="45.973777575220815" y="3" font-family="sans-serif">叔叔</text></g><g class="relationship" transform="translate(-46.06291728846128 60.57896235572626) rotate(537.5932414662982)"><path class="outline" fill="#A5ABB6" stroke="none" d="M 25 0.5 L 64.87708136744 0.5 L 64.87708136744 -0.5 L 25 -0.5 Z M 86.87708136744 0.5 L 126.75416273488 0.5 L 126.75416273488 3.5 L 133.75416273488 0 L 126.75416273488 -3.5 L 126.75416273488 -0.5 L 86.87708136744 -0.5 Z"/><text text-anchor="middle" pointer-events="none" font-size="8px" fill="#000000" x="75.87708136744" y="3" transform="rotate(180 75.87708136744 0)" font-family="sans-serif">主公</text></g><g class="relationship" transform="translate(-46.06291728846128 60.57896235572626) rotate(502.9649378036198)"><path class="outline" fill="#A5ABB6" stroke="none" d="M 25 0.5 L 66.68297595291979 0.5 L 66.68297595291979 -0.5 L 25 -0.5 Z M 88.68297595291979 0.5 L 130.36595190583958 0.5 L 130.36595190583958 3.5 L 137.36595190583958 0 L 130.36595190583958 -3.5 L 130.36595190583958 -0.5 L 88.68297595291979 -0.5 Z"/><text text-anchor="middle" pointer-events="none" font-size="8px" fill="#000000" x="77.68297595291979" y="3" transform="rotate(180 77.68297595291979 0)" font-family="sans-serif">主公</text></g><g class="relationship" transform="translate(-46.06291728846128 60.57896235572626) rotate(481.14308794868504)"><path class="outline" fill="#A5ABB6" stroke="none" d="M 25 0.5 L 69.24748101626625 0.5 L 69.24748101626625 -0.5 L 25 -0.5 Z M 91.24748101626625 0.5 L 135.4949620325325 0.5 L 135.4949620325325 3.5 L 142.4949620325325 0 L 135.4949620325325 -3.5 L 135.4949620325325 -0.5 L 91.24748101626625 -0.5 Z"/><text text-anchor="middle" pointer-events="none" font-size="8px" fill="#000000" x="80.24748101626625" y="3" transform="rotate(180 80.24748101626625 0)" font-family="sans-serif">主公</text></g><g class="relationship" transform="translate(-46.06291728846128 60.57896235572626) rotate(365.1732824985379)"><path class="outline" fill="#A5ABB6" stroke="none" d="M 24.018736134675446,6.953439040707552 L 24.277555179777966,5.987513214418485 A 301.65141969417743 301.65141969417743 0 0 0 88.81245242991807,15.96208227549323 L 88.76757203398739,16.96107464286206 A 302.65141969417743 302.65141969417743 0 0 1 24.018736134675446,6.953439040707552 Z M 110.79831623197322,17.148117701995773 L 110.77040415853352,16.148507319818634 A 301.65141969417743 301.65141969417743 0 0 0 175.46535633563727,7.271111652027152 L 174.73821238089388,4.360568460614221 L 182.37781444139134,6.059532956194765 L 176.43488160862844,11.151835907244392 L 175.70773765388506,8.241292715831461 A 302.65141969417743 302.65141969417743 0 0 1 110.79831623197322,17.148117701995773"/><text text-anchor="middle" pointer-events="none" font-size="8px" fill="#000000" x="99.78548648514568" y="19.755146887990634" font-family="sans-serif">同族</text></g><g class="relationship" transform="translate(-46.06291728846128 60.57896235572626) rotate(379.33903840717574)"><path class="outline" fill="#A5ABB6" stroke="none" d="M 24.018736134675446,6.953439040707552 L 24.277555179777966,5.987513214418485 A 130.50360378839466 130.50360378839466 0 0 0 45.24378960542034,9.804033044363166 L 45.1456269239508,10.799203425738483 A 131.50360378839466 131.50360378839466 0 0 1 24.018736134675446,6.953439040707552 Z M 67.20138048101458,11.115810392991648 L 67.13182339723302,10.1182324200513 A 130.50360378839466 130.50360378839466 0 0 0 88.19896747259521,6.905095306375026 L 87.50600743234808,3.98622456880875 L 95.12515920029104,5.774667002059433 L 89.12291419292471,10.796922956463394 L 88.42995415267758,7.878052218897118 A 131.50360378839466 131.50360378839466 0 0 1 67.20138048101458,11.115810392991648"/><text text-anchor="middle" pointer-events="none" font-size="8px" fill="#000000" x="56.17403033232446" y="13.920820357244168" font-family="sans-serif">同族</text></g></g><g class="layer nodes"><g class="node" transform="translate(-46.06291728846128,60.57896235572626)"><circle class="outline" cx="0" cy="0" r="25" fill="#F79767" stroke="#f36924" stroke-width="2px"/><text text-anchor="middle" pointer-events="none" font-family="sans-serif" dy="1.5625" font-size="25" fill="#FFFFFF"/><text text-anchor="middle" pointer-events="none" x="0" y="5" font-size="10px" fill="#FFFFFF" font-family="sans-serif"> 曹操</text></g><g class="node" transform="translate(-75.62046261216507,233.42242054163486)"><circle class="outline" cx="0" cy="0" r="25" fill="#F79767" stroke="#f36924" stroke-width="2px"/><text text-anchor="middle" pointer-events="none" font-family="sans-serif" dy="1.5625" font-size="25" fill="#FFFFFF"/><text text-anchor="middle" pointer-events="none" x="0" y="5" font-size="10px" fill="#FFFFFF" font-family="sans-serif"> 曹真</text></g><g class="node" transform="translate(-83.5466154827562,169.54806422268277)"><circle class="outline" cx="0" cy="0" r="25" fill="#F79767" stroke="#f36924" stroke-width="2px"/><text text-anchor="middle" pointer-events="none" font-family="sans-serif" dy="1.5625" font-size="25" fill="#FFFFFF"/><text text-anchor="middle" pointer-events="none" x="0" y="5" font-size="10px" fill="#FFFFFF" font-family="sans-serif"> 荀攸</text></g><g class="node" transform="translate(-18.28352226036189,215.87639005128156)"><circle class="outline" cx="0" cy="0" r="25" fill="#F79767" stroke="#f36924" stroke-width="2px"/><text text-anchor="middle" pointer-events="none" font-family="sans-serif" dy="1.5625" font-size="25" fill="#FFFFFF"/><text text-anchor="middle" pointer-events="none" x="0" y="5" font-size="10px" fill="#FFFFFF" font-family="sans-serif"> 程昱</text></g><g class="node" transform="translate(41.05039793712261,224.75048754935756)"><circle class="outline" cx="0" cy="0" r="25" fill="#F79767" stroke="#f36924" stroke-width="2px"/><text text-anchor="middle" pointer-events="none" font-family="sans-serif" dy="1.5625" font-size="25" fill="#FFFFFF"/><text text-anchor="middle" pointer-events="none" x="0" y="5" font-size="10px" fill="#FFFFFF" font-family="sans-serif"> 乐进</text></g><g class="node" transform="translate(117.31351441691125,132.22172049064653)"><circle class="outline" cx="0" cy="0" r="25" fill="#F79767" stroke="#f36924" stroke-width="2px"/><text text-anchor="middle" pointer-events="none" font-family="sans-serif" dy="1.5625" font-size="25" fill="#FFFFFF"/><text text-anchor="middle" pointer-events="none" x="0" y="5" font-size="10px" fill="#FFFFFF" font-family="sans-serif"> 许褚</text></g><g class="node" transform="translate(15.790717195188687,166.44175518752425)"><circle class="outline" cx="0" cy="0" r="25" fill="#F79767" stroke="#f36924" stroke-width="2px"/><text text-anchor="middle" pointer-events="none" font-family="sans-serif" dy="1.5625" font-size="25" fill="#FFFFFF"/><text text-anchor="middle" pointer-events="none" x="0" y="5" font-size="10px" fill="#FFFFFF" font-family="sans-serif"> 庞德</text></g><g class="node" transform="translate(66.64631441194636,100.13540662634107)"><circle class="outline" cx="0" cy="0" r="25" fill="#F79767" stroke="#f36924" stroke-width="2px"/><text text-anchor="middle" pointer-events="none" font-family="sans-serif" dy="1.5625" font-size="25" fill="#FFFFFF"/><text text-anchor="middle" pointer-events="none" x="0" y="5" font-size="10px" fill="#FFFFFF" font-family="sans-serif"> 夏侯淳</text></g><g class="node" transform="translate(159.72771787295812,79.21062470999813)"><circle class="outline" cx="0" cy="0" r="25" fill="#F79767" stroke="#f36924" stroke-width="2px"/><text text-anchor="middle" pointer-events="none" font-family="sans-serif" dy="1.5625" font-size="25" fill="#FFFFFF"/><text text-anchor="middle" pointer-events="none" x="0" y="5" font-size="10px" fill="#FFFFFF" font-family="sans-serif"> 夏侯渊</text></g><g class="node" transform="translate(312.142282710746,106.71706725315252)"><circle class="outline" cx="0" cy="0" r="25" fill="#F79767" stroke="#f36924" stroke-width="2px"/><text text-anchor="middle" pointer-events="none" font-family="sans-serif" dy="1.5625" font-size="25" fill="#FFFFFF"/><text text-anchor="middle" pointer-events="none" x="0" y="5" font-size="10px" fill="#FFFFFF" font-family="sans-serif"> 夏侯楙</text></g><g class="node" transform="translate(80.89366748086213,179.8795411908295)"><circle class="outline" cx="0" cy="0" r="25" fill="#F79767" stroke="#f36924" stroke-width="2px"/><text text-anchor="middle" pointer-events="none" font-family="sans-serif" dy="1.5625" font-size="25" fill="#FFFFFF"/><text text-anchor="middle" pointer-events="none" x="0" y="5" font-size="10px" fill="#FFFFFF" font-family="sans-serif"> 张辽</text></g><g class="node" transform="translate(106.0880188063267,42.52877995942415)"><circle class="outline" cx="0" cy="0" r="25" fill="#F79767" stroke="#f36924" stroke-width="2px"/><text text-anchor="middle" pointer-events="none" font-family="sans-serif" dy="1.5625" font-size="25" fill="#FFFFFF"/><text text-anchor="middle" pointer-events="none" x="0" y="5" font-size="10px" fill="#FFFFFF" font-family="sans-serif"> 司马懿</text></g><g class="node" transform="translate(114.01845212994284,-22.72329527927774)"><circle class="outline" cx="0" cy="0" r="25" fill="#F79767" stroke="#f36924" stroke-width="2px"/><text text-anchor="middle" pointer-events="none" font-family="sans-serif" dy="1.5625" font-size="25" fill="#FFFFFF"/><text text-anchor="middle" pointer-events="none" x="0" y="5" font-size="10px" fill="#FFFFFF" font-family="sans-serif"> 张郃</text></g><g class="node" transform="translate(58.255613643692854,-67.88873396841458)"><circle class="outline" cx="0" cy="0" r="25" fill="#F79767" stroke="#f36924" stroke-width="2px"/><text text-anchor="middle" pointer-events="none" font-family="sans-serif" dy="1.5625" font-size="25" fill="#FFFFFF"/><text text-anchor="middle" pointer-events="none" x="0" y="5" font-size="10px" fill="#FFFFFF" font-family="sans-serif"> 徐晃</text></g><g class="node" transform="translate(57.49014657953077,-2.652685430268451)"><circle class="outline" cx="0" cy="0" r="25" fill="#F79767" stroke="#f36924" stroke-width="2px"/><text text-anchor="middle" pointer-events="none" font-family="sans-serif" dy="1.5625" font-size="25" fill="#FFFFFF"/><text text-anchor="middle" pointer-events="none" x="0" y="5" font-size="10px" fill="#FFFFFF" font-family="sans-serif"> 徐庶</text></g><g class="node" transform="translate(-9.204075202661498,-113.91659530980868)"><circle class="outline" cx="0" cy="0" r="25" fill="#F79767" stroke="#f36924" stroke-width="2px"/><text text-anchor="middle" pointer-events="none" font-family="sans-serif" dy="1.5625" font-size="25" fill="#FFFFFF"/><text text-anchor="middle" pointer-events="none" x="0" y="5" font-size="10px" fill="#FFFFFF" font-family="sans-serif"> 蔡瑁</text></g><g class="node" transform="translate(66.06971729313334,-239.39937889812072)"><circle class="outline" cx="0" cy="0" r="25" fill="#F79767" stroke="#f36924" stroke-width="2px"/><text text-anchor="middle" pointer-events="none" font-family="sans-serif" dy="1.5625" font-size="25" fill="#FFFFFF"/><text text-anchor="middle" pointer-events="none" x="0" y="5" font-size="10px" fill="#FFFFFF" font-family="sans-serif"> 蔡氏</text></g><g class="node" transform="translate(-7.410054646807871,-52.183898881593436)"><circle class="outline" cx="0" cy="0" r="25" fill="#F79767" stroke="#f36924" stroke-width="2px"/><text text-anchor="middle" pointer-events="none" font-family="sans-serif" dy="1.5625" font-size="25" fill="#FFFFFF"/><text text-anchor="middle" pointer-events="none" x="0" y="5" font-size="10px" fill="#FFFFFF" font-family="sans-serif"> 典韦</text></g><g class="node" transform="translate(-78.31493771870052,-102.96637181973468)"><circle class="outline" cx="0" cy="0" r="25" fill="#F79767" stroke="#f36924" stroke-width="2px"/><text text-anchor="middle" pointer-events="none" font-family="sans-serif" dy="1.5625" font-size="25" fill="#FFFFFF"/><text text-anchor="middle" pointer-events="none" x="0" y="5" font-size="10px" fill="#FFFFFF" font-family="sans-serif"> 张绣</text></g><g class="node" transform="translate(-98.69186572832697,-46.63551890294167)"><circle class="outline" cx="0" cy="0" r="25" fill="#F79767" stroke="#f36924" stroke-width="2px"/><text text-anchor="middle" pointer-events="none" font-family="sans-serif" dy="1.5625" font-size="25" fill="#FFFFFF"/><text text-anchor="middle" pointer-events="none" x="0" y="5" font-size="10px" fill="#FFFFFF" font-family="sans-serif"> 蒯越</text></g><g class="node" transform="translate(-159.43120513010354,-42.740809448363635)"><circle class="outline" cx="0" cy="0" r="25" fill="#F79767" stroke="#f36924" stroke-width="2px"/><text text-anchor="middle" pointer-events="none" font-family="sans-serif" dy="1.5625" font-size="25" fill="#FFFFFF"/><text text-anchor="middle" pointer-events="none" x="0" y="5" font-size="10px" fill="#FFFFFF" font-family="sans-serif"> 郭嘉</text></g><g class="node" transform="translate(-174.7887951617463,15.239908574671889)"><circle class="outline" cx="0" cy="0" r="25" fill="#F79767" stroke="#f36924" stroke-width="2px"/><text text-anchor="middle" pointer-events="none" font-family="sans-serif" dy="1.5625" font-size="25" fill="#FFFFFF"/><text text-anchor="middle" pointer-events="none" x="0" y="5" font-size="10px" fill="#FFFFFF" font-family="sans-serif"> 贾诩</text></g><g class="node" transform="translate(-155.69108716218608,101.82957430784764)"><circle class="outline" cx="0" cy="0" r="25" fill="#F79767" stroke="#f36924" stroke-width="2px"/><text text-anchor="middle" pointer-events="none" font-family="sans-serif" dy="1.5625" font-size="25" fill="#FFFFFF"/><text text-anchor="middle" pointer-events="none" x="0" y="5" font-size="10px" fill="#FFFFFF" font-family="sans-serif"> 荀彧</text></g><g class="node" transform="translate(-204.6770403651424,67.2456066591383)"><circle class="outline" cx="0" cy="0" r="25" fill="#F79767" stroke="#f36924" stroke-width="2px"/><text text-anchor="middle" pointer-events="none" font-family="sans-serif" dy="1.5625" font-size="25" fill="#FFFFFF"/><text text-anchor="middle" pointer-events="none" x="0" y="5" font-size="10px" fill="#FFFFFF" font-family="sans-serif"> 于禁</text></g><g class="node" transform="translate(-175.67431150474656,158.37256555961736)"><circle class="outline" cx="0" cy="0" r="25" fill="#F79767" stroke="#f36924" stroke-width="2px"/><text text-anchor="middle" pointer-events="none" font-family="sans-serif" dy="1.5625" font-size="25" fill="#FFFFFF"/><text text-anchor="middle" pointer-events="none" x="0" y="5" font-size="10px" fill="#FFFFFF" font-family="sans-serif"> 邓艾</text></g><g class="node" transform="translate(-132.68747908984585,203.9342817512674)"><circle class="outline" cx="0" cy="0" r="25" fill="#F79767" stroke="#f36924" stroke-width="2px"/><text text-anchor="middle" pointer-events="none" font-family="sans-serif" dy="1.5625" font-size="25" fill="#FFFFFF"/><text text-anchor="middle" pointer-events="none" x="0" y="5" font-size="10px" fill="#FFFFFF" font-family="sans-serif"> 钟会</text></g></g></svg>